<svg width="26" height="26" viewBox="0 0 26 26" fill="none" xmlns="http://www.w3.org/2000/svg">
<g clip-path="url(#clip0_303_461)">
<path d="M25.9863 13.2432C25.9863 12.178 25.8978 11.4007 25.7064 10.5946H13.259V15.4024H20.5653C20.4181 16.5972 19.6226 18.3966 17.8549 19.6057L17.8301 19.7666L21.7658 22.746L22.0385 22.7726C24.5426 20.5126 25.9863 17.1874 25.9863 13.2432Z" fill="#4285F4"/>
<path d="M13.259 25.9107C16.8385 25.9107 19.8435 24.7591 22.0384 22.7726L17.8549 19.6057C16.7354 20.3686 15.2328 20.9012 13.259 20.9012C9.75309 20.9012 6.77751 18.6413 5.7168 15.5176L5.56133 15.5305L1.46898 18.6254L1.41547 18.7708C3.59558 23.0029 8.07372 25.9107 13.259 25.9107Z" fill="#34A853"/>
<path d="M5.71679 15.5176C5.43691 14.7115 5.27494 13.8478 5.27494 12.9553C5.27494 12.0628 5.43692 11.1991 5.70207 10.393L5.69465 10.2214L1.55103 7.07675L1.41545 7.13977C0.516922 8.89596 0.00134277 10.8681 0.00134277 12.9553C0.00134277 15.0426 0.516922 17.0146 1.41545 18.7708L5.71679 15.5176Z" fill="#FBBC05"/>
<path d="M13.259 5.00936C15.7484 5.00936 17.4277 6.06018 18.3852 6.93833L22.1268 3.36839C19.8289 1.28114 16.8385 0 13.259 0C8.07373 0 3.59559 2.90773 1.41547 7.13978L5.70208 10.393C6.77752 7.26938 9.7531 5.00936 13.259 5.00936Z" fill="#EB4335"/>
</g>
<defs>
<clipPath id="clip0_303_461">
<rect width="26" height="26" fill="white"/>
</clipPath>
</defs>
</svg>
