<svg width="25" height="22" viewBox="0 0 25 22" fill="none" xmlns="http://www.w3.org/2000/svg">
<path d="M23.7516 8.15L13.4016 0.95C12.5766 0.35 11.4516 0.35 10.6266 0.95L0.351562 8.15C-0.0234375 8.375 -0.0984375 8.825 0.126563 9.2C0.351563 9.575 0.801563 9.65 1.17656 9.425L3.05156 8.075V16.175C3.05156 19.1 5.45156 21.5 8.37656 21.5H15.8016C18.7266 21.5 21.1266 19.1 21.1266 16.175V8.075L22.9266 9.35C23.0016 9.5 23.1516 9.5 23.3016 9.5C23.5266 9.5 23.7516 9.35 23.9016 9.2C24.1266 8.825 24.0516 8.375 23.7516 8.15ZM19.5516 16.175C19.5516 18.275 17.8266 19.925 15.8016 19.925H8.37656C6.27656 19.925 4.62656 18.2 4.62656 16.175V7.025L11.6766 2.15C11.9766 1.925 12.3516 1.925 12.6516 2.15L19.6266 7.025L19.5516 16.175Z" fill="#6F7782"/>
</svg>
