<svg width="26" height="24" viewBox="0 0 26 24" fill="none" xmlns="http://www.w3.org/2000/svg">
<path d="M13.155 20.5057C12.3819 20.5171 11.6089 20.4699 10.8428 20.3647C10.7894 20.3553 10.7346 20.3572 10.6819 20.3703C10.6292 20.3834 10.5798 20.4073 10.5369 20.4406C9.01528 21.509 7.4964 22.58 5.93418 23.5779C5.74195 23.6972 5.54429 23.8057 5.34664 23.9169C5.27772 23.9578 5.20133 23.9846 5.12193 23.9955C4.87014 24.028 4.72393 23.8816 4.77537 23.6322C4.87013 23.1929 5.0001 22.7644 5.12193 22.3333C5.43329 21.2486 5.74195 20.164 6.05602 19.0794C6.0831 18.9817 6.07496 18.9384 5.97478 18.8868C4.49709 18.1591 3.18544 17.1335 2.12203 15.8743C1.06185 14.6425 0.362778 13.1409 0.102241 11.5357C-0.188009 9.7119 0.143934 7.84336 1.04446 6.23176C1.92845 4.64291 3.19989 3.30423 4.74017 2.34061C6.37168 1.2917 8.19779 0.583386 10.1091 0.258093C11.5378 -0.00207728 12.9952 -0.0659396 14.4411 0.0682772C17.1326 0.264066 19.7161 1.20887 21.9002 2.79617C23.3799 3.83898 24.548 5.26573 25.2792 6.92323C26.4299 9.63484 26.1889 12.2732 24.6564 14.7869C23.6658 16.3546 22.2959 17.6464 20.6737 18.5425C19.1361 19.4258 17.4508 20.0212 15.7001 20.2996C14.8585 20.4354 14.0075 20.5043 13.155 20.5057Z" fill="#181600"/>
</svg>
