<svg width="125" height="34" viewBox="0 0 125 34" fill="none" xmlns="http://www.w3.org/2000/svg">
<path d="M3.52 22.32C4.92 23.52 6.56 24.52 8.48 25.24C10.36 26 12.32 26.36 14.32 26.32C15.64 26.32 16.6 26.12 17.24 25.72C17.84 25.36 18.16 24.8 18.16 24.04C18.16 23.16 17.8 22.48 17.12 21.92C16.4 21.4 15.2 20.92 13.56 20.44C12.12 20.04 10.68 19.6 9.2 19.12C7.68 18.68 6.32 18.08 5.12 17.28C3.88 16.52 2.88 15.52 2.12 14.32C1.32 13.12 0.92 11.6 0.92 9.68C0.92 8 1.24 6.56 1.92 5.32C2.56 4.12 3.44 3.12 4.6 2.32C5.72 1.56 7.04 0.999999 8.56 0.599999C10.04 0.239999 11.64 0.0399995 13.32 0.0399995C14.48 0.0399995 15.6 0.119998 16.68 0.279999C17.72 0.439999 18.76 0.679998 19.8 0.999999C20.8 1.36 21.8 1.8 22.84 2.28C23.8 2.8 24.84 3.4 25.92 4.12L22.64 10.52C21.36 9.56 19.92 8.76 18.4 8.2C16.84 7.64 15.2 7.36 13.52 7.28C12.96 7.28 12.44 7.28 11.96 7.32C11.44 7.4 11 7.52 10.64 7.68C10.24 7.88 9.96 8.12 9.76 8.36C9.52 8.64 9.4 8.96 9.4 9.36C9.4 9.76 9.44 10.12 9.6 10.4C9.68 10.72 9.92 11.04 10.28 11.28C10.6 11.56 11.12 11.84 11.8 12.08C12.44 12.36 13.28 12.64 14.4 12.92C16.08 13.4 17.72 13.92 19.24 14.4C20.72 14.96 22.04 15.6 23.16 16.36C24.28 17.16 25.16 18.16 25.8 19.32C26.44 20.52 26.76 22 26.76 23.76C26.76 25.44 26.44 26.88 25.8 28.08C25.16 29.28 24.24 30.32 23.12 31.12C21.96 31.92 20.6 32.52 19.04 32.92C17.44 33.32 15.72 33.52 13.88 33.52C11.2 33.52 8.72 33.12 6.44 32.32C4.12 31.52 1.96 30.4 0 29L3.52 22.32Z" fill="#1D5CFF"/>
<path d="M28.3488 16.72C28.3488 14.32 28.7887 12.08 29.7087 10C30.5887 7.96 31.7888 6.2 33.3888 4.68C34.9088 3.24 36.7488 2.08 38.9088 1.24C41.0288 0.439999 43.3488 0 45.8688 0C48.3888 0 50.7088 0.439999 52.8688 1.24C54.9888 2.08 56.8288 3.24 58.4288 4.68C59.9488 6.2 61.1888 7.96 62.0688 10C62.9088 12.08 63.3488 14.32 63.3488 16.72C63.3488 19.2 62.9088 21.44 62.0688 23.48C61.1888 25.56 59.9488 27.32 58.4288 28.8C56.8288 30.28 54.9888 31.44 52.8688 32.28C50.7088 33.08 48.3888 33.52 45.8688 33.52C43.3488 33.52 41.0288 33.08 38.9088 32.28C36.7488 31.44 34.9088 30.28 33.3888 28.8C31.7888 27.32 30.5887 25.56 29.7087 23.48C28.7887 21.44 28.3488 19.2 28.3488 16.72ZM36.6688 16.72C36.6688 18.2 36.8688 19.52 37.3488 20.72C37.7488 21.96 38.3888 23 39.1888 23.88C39.9888 24.76 40.9487 25.44 42.1087 25.92C43.2287 26.44 44.4688 26.68 45.8688 26.68C47.2288 26.68 48.5088 26.44 49.6688 25.92C50.7888 25.44 51.7488 24.76 52.5488 23.88C53.3488 23 53.9488 21.96 54.4288 20.72C54.8288 19.52 55.0688 18.2 55.0688 16.72C55.0688 15.32 54.8288 14 54.4288 12.8C53.9488 11.6 53.3488 10.56 52.5488 9.68C51.7488 8.8 50.7888 8.12 49.6688 7.6C48.5088 7.12 47.2288 6.88 45.8688 6.88C44.4688 6.88 43.2287 7.12 42.1087 7.6C40.9487 8.12 39.9888 8.8 39.1888 9.68C38.3888 10.56 37.7488 11.6 37.3488 12.8C36.8688 14 36.6688 15.32 36.6688 16.72Z" fill="#1D5CFF"/>
<path d="M62.1316 32.72L72.9316 0.839999H83.4116L94.2116 32.72H85.8916L82.8516 23.8L72.5316 26.64L70.4516 32.72H62.1316ZM75.0916 19.08L80.6916 17.52L78.1716 10.04L75.0916 19.08Z" fill="#1D5CFF"/>
<path d="M95.4034 0.839999H113.283C114.643 0.839999 115.963 1.04 117.203 1.4C118.403 1.8 119.443 2.36 120.323 3.08C121.203 3.88 121.883 4.84 122.403 6.04C122.883 7.24 123.163 8.68 123.163 10.28C123.163 12.44 122.803 14.16 122.083 15.44C121.363 16.8 120.283 17.84 118.883 18.64L124.963 32.72H116.283L111.323 21.04L103.723 22.72V32.72H95.4034V0.839999ZM114.883 10.48C114.883 9.76 114.643 9.08 114.163 8.52C113.643 8 112.963 7.72 112.163 7.72H103.723V15.44L111.323 14.04C112.683 13.8 113.603 13.36 114.123 12.72C114.603 12.08 114.883 11.36 114.883 10.48Z" fill="#1D5CFF"/>
</svg>
