<svg width="25" height="24" viewBox="0 0 25 24" fill="none" xmlns="http://www.w3.org/2000/svg">
<path d="M3.55151 18.5C3.55151 14.6484 3.55151 5.5 3.55151 5.5C3.55151 3.84315 4.89466 2.5 6.55151 2.5H17.5515V15.5C17.5515 15.5 9.16781 15.5 6.55151 15.5C4.90151 15.5 3.55151 16.8421 3.55151 18.5Z" stroke="#6F7782" stroke-width="1.5" stroke-linejoin="round"/>
<path d="M17.5515 15.5C17.5515 15.5 7.12836 15.5 6.55151 15.5C4.89466 15.5 3.55151 16.8432 3.55151 18.5C3.55151 20.1568 4.89466 21.5 6.55151 21.5C7.65606 21.5 12.9894 21.5 20.5515 21.5V3.5" stroke="#6F7782" stroke-width="1.5" stroke-linecap="round" stroke-linejoin="round"/>
<path d="M7.05151 18.5H17.0515" stroke="#6F7782" stroke-width="1.5" stroke-linecap="round" stroke-linejoin="round"/>
</svg>
