<svg width="21" height="21" viewBox="0 0 21 21" fill="none" xmlns="http://www.w3.org/2000/svg">
<path d="M1.11034 21L1.11038 20.95C0.971794 20.9499 0.834594 20.9224 0.706674 20.869C0.578753 20.8157 0.462635 20.7376 0.364997 20.6393L0.364874 20.6391L0.361017 20.6353L0.360872 20.6351C0.220595 20.496 0.12238 20.32 0.0774895 20.1276C0.0325986 19.9352 0.0428486 19.7339 0.107065 19.5471L0.107128 19.5469L2.23891 13.2622L14.312 1.18902L14.2766 1.15367L14.312 1.18902C15.0411 0.459762 16.0302 0.0500452 17.0614 0.05C18.0927 0.0499549 19.0817 0.459586 19.811 1.18878C20.5402 1.91797 20.95 2.90699 20.95 3.93827C20.95 4.96955 20.5404 5.95861 19.8112 6.68787L7.73819 18.761L1.45339 20.893L1.45333 20.893C1.34288 20.9307 1.22699 20.9499 1.1103 20.95L1.11034 21ZM1.11034 21C0.96516 20.9999 0.821437 20.971 0.687434 20.9152C0.553432 20.8593 0.431793 20.7775 0.329512 20.6745L1.46945 20.9404C1.35382 20.9798 1.2325 20.9999 1.11034 21ZM15.2446 2.12135L15.2445 2.12149L13.6557 3.71021L13.6204 3.74556L13.6557 3.78092L17.2191 7.34429L17.2544 7.37965L17.2898 7.34429L18.8785 5.75558L18.8786 5.75544C19.3575 5.27291 19.6256 4.62028 19.6243 3.94046C19.623 3.26064 19.3524 2.60903 18.8717 2.12832C18.391 1.64761 17.7394 1.37697 17.0596 1.37566C16.3798 1.37436 15.7272 1.64249 15.2446 2.12135ZM3.39734 13.9687L3.3891 13.977L3.38535 13.988L1.556 19.3807L1.52344 19.4767L1.61941 19.4441L7.01206 17.6148L7.0231 17.611L7.03135 17.6028L16.2866 8.34747L16.322 8.31212L16.2866 8.27676L12.7233 4.71339L12.6879 4.67803L12.6525 4.71339L3.39734 13.9687Z" fill="current" stroke="current" stroke-width="0.1"/>
</svg>
