<svg width="22" height="21" viewBox="0 0 22 21" fill="none" xmlns="http://www.w3.org/2000/svg">
<path d="M0.412386 20.6351L0.412525 20.6353L0.416382 20.6391L0.416511 20.6393C0.514149 20.7376 0.630267 20.8157 0.758187 20.869C0.886108 20.9224 1.02331 20.9499 1.1619 20.95L1.16185 21M0.412386 20.6351L19.8627 6.68787M0.412386 20.6351C0.272109 20.496 0.173894 20.32 0.129003 20.1276C0.0841123 19.9352 0.0943622 19.7339 0.158578 19.5471L0.158641 19.5469L2.29042 13.2622M0.412386 20.6351L2.29042 13.2622M1.16185 21L1.16182 20.95C1.27851 20.9499 1.39439 20.9307 1.50484 20.893L1.50491 20.893L7.7897 18.761L19.8627 6.68787M1.16185 21C1.28402 20.9999 1.40533 20.9798 1.52097 20.9404L0.111291 19.5308C0.0440222 19.7266 0.0332848 19.9374 0.0803103 20.139C0.127336 20.3406 0.230221 20.5248 0.377169 20.6706L0.381026 20.6745C0.483307 20.7775 0.604946 20.8593 0.738948 20.9152C0.872951 20.971 1.01667 20.9999 1.16185 21ZM19.8627 6.68787C20.5919 5.95861 21.0016 4.96955 21.0015 3.93827C21.0015 2.90699 20.5918 1.91797 19.8625 1.18878C19.1333 0.459586 18.1442 0.0499549 17.1129 0.05C16.0817 0.0500452 15.0927 0.459762 14.3635 1.18902L2.29042 13.2622M19.8627 6.68787L2.29042 13.2622M15.2962 2.12135L15.296 2.12149L13.7072 3.71021L13.6719 3.74556L13.7072 3.78092L17.2706 7.34429L17.3059 7.37965L17.3413 7.34429L18.93 5.75558L18.9301 5.75544C19.409 5.27291 19.6771 4.62028 19.6758 3.94046C19.6746 3.26064 19.4039 2.60903 18.9232 2.12832C18.4425 1.64761 17.7909 1.37697 17.1111 1.37566C16.4313 1.37436 15.7787 1.64249 15.2962 2.12135ZM3.44886 13.9687L3.44061 13.977L3.43686 13.988L1.60751 19.3807L1.57496 19.4767L1.67092 19.4441L7.06357 17.6148L7.07461 17.611L7.08286 17.6028L16.3381 8.34747L16.3735 8.31212L16.3381 8.27676L12.7748 4.71339L12.7394 4.67803L12.7041 4.71339L3.44886 13.9687Z" fill="#6F7782" stroke="current" stroke-width="0.1"/>
</svg>
