<svg width="16" height="16" viewBox="0 0 16 16" fill="none" xmlns="http://www.w3.org/2000/svg">
<g id="icon-park-outline:setting-two">
<g id="Group">
<path id="Vector" d="M6.09483 14.3903C4.99218 14.0611 3.99356 13.452 3.19616 12.6223C3.45272 12.318 3.61265 11.9441 3.65549 11.5484C3.69833 11.1527 3.62213 10.7532 3.43664 10.4011C3.25116 10.0489 2.96481 9.76013 2.61426 9.57165C2.26371 9.38316 1.86488 9.30355 1.46883 9.34301C1.3786 8.90104 1.33326 8.45109 1.3335 8.00001C1.3335 7.30334 1.44016 6.63134 1.63883 6.00001H1.66683C2.00675 6.00012 2.34109 5.91359 2.63828 5.74859C2.93546 5.58359 3.18569 5.34557 3.36534 5.057C3.54499 4.76844 3.64812 4.43884 3.665 4.09934C3.68189 3.75984 3.61196 3.42164 3.46183 3.11667C4.24336 2.38895 5.18852 1.85995 6.2175 1.57434C6.38496 1.90314 6.64011 2.17921 6.95473 2.37199C7.26935 2.56478 7.63118 2.66677 8.00016 2.66667C8.36915 2.66677 8.73097 2.56478 9.04559 2.37199C9.36022 2.17921 9.61537 1.90314 9.78283 1.57434C10.8118 1.85995 11.757 2.38895 12.5385 3.11667C12.3873 3.42378 12.3174 3.76456 12.3356 4.10639C12.3537 4.44823 12.4594 4.77968 12.6423 5.06902C12.8252 5.35835 13.0794 5.5959 13.3804 5.7589C13.6814 5.92191 14.0192 6.00493 14.3615 6.00001C14.5645 6.64725 14.6674 7.32169 14.6668 8.00001C14.6668 8.46001 14.6202 8.90934 14.5315 9.34334C14.1354 9.30388 13.7366 9.38349 13.3861 9.57198C13.0355 9.76047 12.7492 10.0493 12.5637 10.4014C12.3782 10.7536 12.302 11.1531 12.3448 11.5488C12.3877 11.9445 12.5476 12.3184 12.8042 12.6227C12.0067 13.4522 11.0081 14.0612 9.9055 14.3903C9.77601 13.9868 9.52173 13.6347 9.17931 13.385C8.83688 13.1352 8.424 13.0007 8.00016 13.0007C7.57633 13.0007 7.16345 13.1352 6.82102 13.385C6.47859 13.6347 6.22431 13.9868 6.09483 14.3903Z" stroke="white" stroke-linejoin="round"/>
<path id="Vector_2" d="M8.00033 10.3334C8.30674 10.3334 8.61016 10.273 8.89325 10.1557C9.17635 10.0385 9.43357 9.86661 9.65024 9.64994C9.86691 9.43327 10.0388 9.17604 10.156 8.89295C10.2733 8.60985 10.3337 8.30644 10.3337 8.00002C10.3337 7.6936 10.2733 7.39019 10.156 7.10709C10.0388 6.824 9.86691 6.56677 9.65024 6.3501C9.43357 6.13343 9.17635 5.96156 8.89325 5.8443C8.61016 5.72704 8.30674 5.66669 8.00033 5.66669C7.38149 5.66669 6.78799 5.91252 6.35041 6.3501C5.91282 6.78769 5.66699 7.38118 5.66699 8.00002C5.66699 8.61886 5.91282 9.21235 6.35041 9.64994C6.78799 10.0875 7.38149 10.3334 8.00033 10.3334Z" stroke="white" stroke-linejoin="round"/>
</g>
</g>
</svg>
