<svg width="15" height="14" viewBox="0 0 15 14" fill="none" xmlns="http://www.w3.org/2000/svg">
<path id="Vector" d="M4.82576 4.22661L0.571121 4.84347L0.495765 4.85881C0.381689 4.88909 0.277694 4.94911 0.1944 5.03273C0.111106 5.11635 0.051497 5.22058 0.0216603 5.33477C-0.00817647 5.44896 -0.00717185 5.56903 0.0245715 5.68271C0.0563148 5.79639 0.117659 5.8996 0.202341 5.98182L3.28462 8.98207L2.55773 13.22L2.54906 13.2934C2.54208 13.4114 2.56658 13.5291 2.62005 13.6345C2.67352 13.7399 2.75405 13.8292 2.85338 13.8933C2.95271 13.9573 3.06728 13.9938 3.18536 13.999C3.30343 14.0042 3.42077 13.978 3.52536 13.9229L7.33053 11.9223L11.127 13.9229L11.1937 13.9536C11.3038 13.997 11.4234 14.0103 11.5403 13.9921C11.6572 13.974 11.7672 13.9251 11.859 13.8504C11.9508 13.7757 12.021 13.678 12.0625 13.5672C12.1041 13.4565 12.1154 13.3366 12.0953 13.22L11.3678 8.98207L14.4514 5.98115L14.5034 5.92447C14.5777 5.83295 14.6264 5.72337 14.6446 5.6069C14.6628 5.49043 14.6497 5.37122 14.6068 5.26142C14.5639 5.15162 14.4927 5.05515 14.4004 4.98185C14.308 4.90855 14.1979 4.86103 14.0813 4.84413L9.82663 4.22661L7.92472 0.372094C7.86968 0.260416 7.78448 0.166374 7.67877 0.100614C7.57305 0.034853 7.45103 0 7.32653 0C7.20203 0 7.08001 0.034853 6.9743 0.100614C6.86858 0.166374 6.78338 0.260416 6.72835 0.372094L4.82576 4.22661Z" fill="#FFA800"/>
</svg>
